<svg width="29" height="27" viewBox="0 0 29 27" fill="none" xmlns="http://www.w3.org/2000/svg">
    <path
        d="M24.0488 3.63477H4.8253C2.35623 3.63477 0.347656 5.64334 0.347656 8.11241V21.6678C0.347656 24.1369 2.35623 26.1455 4.8253 26.1455H24.0439C26.513 26.1455 28.5216 24.1369 28.5216 21.6678V8.11241C28.5216 5.64334 26.5179 3.63477 24.0488 3.63477ZM26.562 21.6629C26.562 23.0493 25.4303 24.181 24.0439 24.181H4.8253C3.4389 24.181 2.30724 23.0493 2.30724 21.6629V8.11241C2.30724 6.72601 3.4389 5.59435 4.8253 5.59435H24.0439C25.4303 5.59435 26.562 6.72601 26.562 8.11241V21.6629Z"
        fill="#003DCA" />
    <path
        d="M10.9592 9.48438C7.98067 9.48438 5.55078 11.9094 5.55078 14.8928C5.55078 17.8714 7.97577 20.2964 10.9592 20.2964C13.9378 20.2964 16.3628 17.8714 16.3628 14.8928C16.3677 11.9094 13.9427 9.48438 10.9592 9.48438ZM10.9592 18.3368C9.05844 18.3368 7.51036 16.7887 7.51036 14.8928C7.51036 12.992 9.05844 11.444 10.9592 11.444C12.86 11.444 14.4032 12.992 14.4032 14.8928C14.4081 16.7887 12.86 18.3368 10.9592 18.3368Z"
        fill="#F800C0" />
    <path
        d="M18.0716 1.95958C18.6105 1.95958 19.0514 1.51868 19.0514 0.979792C19.0514 0.440906 18.6105 0 18.0716 0H10.9583C10.4194 0 9.97852 0.440906 9.97852 0.979792C9.97852 1.51868 10.4194 1.95958 10.9583 1.95958H18.0716Z"
        fill="#F800C0" />
    <path
        d="M22.1829 10.2725H19.8118C19.2729 10.2725 18.832 10.7134 18.832 11.2523C18.832 11.7911 19.2729 12.232 19.8118 12.232H22.1829C22.7218 12.232 23.1627 11.7911 23.1627 11.2523C23.1627 10.7134 22.7267 10.2725 22.1829 10.2725Z"
        fill="#003DCA" />
</svg>