<svg width="28" height="28" viewBox="0 0 28 28" fill="none" xmlns="http://www.w3.org/2000/svg">
<path d="M14.8081 26.6516C0.543907 23.6351 1.17948 3.28827 15.6352 1.19228C8.00435 0.169185 1.03769 6.27814 1.09607 13.9884C1.06836 21.392 7.40595 27.3421 14.7903 26.8635C14.7962 26.7928 14.8024 26.7223 14.8081 26.6516Z" fill="#CEE1F2"/>
<path d="M23.6154 13.9898C23.6154 14.5935 23.126 15.083 22.5222 15.083H10.3633C10.5113 17.8493 11.1839 20.3003 11.705 21.9727C11.8846 22.5491 11.5629 23.162 10.9865 23.3416C10.4257 23.521 9.79572 23.2048 9.61764 22.6231C9.0528 20.8103 8.32191 18.138 8.17422 15.083H5.46879C4.0199 15.0292 4.021 12.9499 5.46879 12.8966H8.17439C8.323 9.84187 9.05838 7.16852 9.62666 5.35484C9.8072 4.77863 10.4206 4.45806 10.9967 4.63854C11.5728 4.81908 11.8935 5.43246 11.713 6.00856C11.1889 7.68116 10.5124 10.1321 10.3636 12.8966H17.6302C17.5244 10.6969 17.1006 8.43233 16.3411 6.00856C15.959 4.61083 17.9433 3.9886 18.4274 5.35484C19.2555 7.99752 19.7134 10.4761 19.8194 12.8966H22.5222C23.1259 12.8966 23.6154 13.386 23.6154 13.9898ZM23.8897 4.09551C15.1384 -4.68428 -0.0184841 1.59598 0.00299664 13.9899C-0.166335 21.7352 6.8663 28.4697 14.5968 27.9696C15.2 27.944 15.6682 27.4344 15.6427 26.8311C15.6171 26.2279 15.1075 25.7607 14.5043 25.7852C-1.48158 25.7993 -1.97673 2.85782 13.9956 2.1835C20.5054 2.1835 25.8017 7.4798 25.8017 13.9897C25.8017 14.5935 26.2912 15.0829 26.8949 15.0829C27.4987 15.0829 27.9881 14.5935 27.9881 13.9897C27.9881 10.2522 26.5326 6.73836 23.8897 4.09551Z" fill="#003DCA"/>
<path d="M23.9233 17.4569C23.701 17.0123 23.2466 16.7314 22.7495 16.7314C22.2525 16.7314 21.798 17.0123 21.5757 17.4569L17.6388 25.331C17.3147 25.9792 17.5774 26.7676 18.2257 27.0917C18.8738 27.4157 19.6622 27.153 19.9863 26.5048L20.936 24.6055H24.5631L25.5127 26.5048C25.8369 27.1532 26.6252 27.4157 27.2733 27.0916C27.9216 26.7675 28.1843 25.9792 27.8602 25.3309L23.9233 17.4569ZM22.2483 21.9808L22.7495 20.9783L23.2508 21.9808H22.2483Z" fill="#F800C0"/>
</svg>
