<svg width="256" height="66" viewBox="0 0 256 66" fill="none" xmlns="http://www.w3.org/2000/svg">
<path d="M241.164 46.7C248.966 40.2868 250.136 28.7699 243.772 21.0269C237.408 13.2838 225.883 12.2019 218.08 18.615C214.993 21.1521 212.856 24.5323 211.9 28.3904L207.991 44.1592C207.533 46.0112 207.978 47.9918 209.182 49.4572C210.387 50.9227 212.244 51.7429 214.15 51.6513L230.377 50.8702C234.347 50.6791 238.077 49.237 241.164 46.7Z" fill="url(#paint0_linear_5_26795)"/>
<path d="M11.9745 26.1932C11.337 26.1881 10.7068 26.3299 10.1329 26.6075C9.55896 26.8852 9.05671 27.2912 8.66507 27.7943C8.39401 27.2839 7.98238 26.8619 7.47891 26.5782C6.97544 26.2944 6.4012 26.1609 5.82416 26.1932C5.23512 26.1999 4.65672 26.351 4.13969 26.6332C3.62266 26.9155 3.1828 27.3202 2.8587 27.8121V27.6994C2.8587 27.3204 2.70811 26.9569 2.44006 26.6889C2.172 26.4209 1.80844 26.2703 1.42935 26.2703C1.05026 26.2703 0.686703 26.4209 0.418647 26.6889C0.150592 26.9569 0 27.3204 0 27.6994V35.1531C0 35.5322 0.150592 35.8956 0.418647 36.1637C0.686703 36.4317 1.05026 36.5822 1.42935 36.5822C1.80844 36.5822 2.172 36.4317 2.44006 36.1637C2.70811 35.8956 2.8587 35.5322 2.8587 35.1531V30.8422C2.8587 29.4902 3.51704 28.7905 4.59053 28.7905C5.66403 28.7905 6.26898 29.4902 6.26898 30.8422V35.1531C6.26898 35.5322 6.41957 35.8956 6.68763 36.1637C6.95568 36.4317 7.31924 36.5822 7.69833 36.5822C8.07742 36.5822 8.44098 36.4317 8.70904 36.1637C8.97709 35.8956 9.12768 35.5322 9.12768 35.1531V30.8422C9.12768 29.4902 9.78602 28.7905 10.8595 28.7905C11.933 28.7905 12.532 29.4902 12.532 30.8422V35.1531C12.532 35.5322 12.6826 35.8956 12.9507 36.1637C13.2187 36.4317 13.5823 36.5822 13.9614 36.5822C14.3405 36.5822 14.704 36.4317 14.9721 36.1637C15.2401 35.8956 15.3907 35.5322 15.3907 35.1531V29.8993C15.4085 27.4741 14.1037 26.1932 11.9745 26.1932Z" fill="url(#paint1_linear_5_26795)"/>
<path d="M24.807 26.2667C24.49 26.2735 24.1839 26.3839 23.9355 26.5809C23.6871 26.7779 23.5099 27.0507 23.431 27.3578L21.3374 33.2105L19.1548 27.34C19.083 27.0307 18.9071 26.7554 18.6567 26.56C18.4063 26.3647 18.0964 26.2612 17.7789 26.2667C17.5946 26.2594 17.4107 26.2898 17.2385 26.3559C17.0663 26.422 16.9094 26.5224 16.7773 26.6512C16.6452 26.7799 16.5408 26.9342 16.4703 27.1046C16.3998 27.275 16.3648 27.458 16.3673 27.6424C16.3825 27.8687 16.4346 28.0911 16.5215 28.3006L19.9615 36.2762L19.8666 36.5015C19.7923 36.7025 19.6506 36.8714 19.4657 36.9796C19.2807 37.0877 19.0639 37.1283 18.8524 37.0945C18.65 37.0878 18.45 37.0498 18.2593 36.9818C18.1073 36.927 17.9464 36.9008 17.7848 36.9047C17.6322 36.9062 17.4814 36.9383 17.3415 36.9992C17.2015 37.06 17.0752 37.1484 16.9701 37.259C16.865 37.3697 16.7832 37.5003 16.7295 37.6432C16.6759 37.786 16.6516 37.9382 16.6579 38.0907C16.6593 38.3593 16.748 38.6203 16.9106 38.8342C17.0732 39.0481 17.3009 39.2034 17.5594 39.2766C18.0592 39.4576 18.5878 39.546 19.1193 39.5376C20.8333 39.5376 21.6814 38.7667 22.5295 36.715L26.0466 28.265C26.1275 28.0486 26.1716 27.8201 26.1771 27.589C26.1772 27.4113 26.1415 27.2354 26.072 27.0718C26.0026 26.9082 25.9009 26.7602 25.7731 26.6368C25.6452 26.5134 25.4937 26.417 25.3277 26.3534C25.1618 26.2898 24.9847 26.2603 24.807 26.2667Z" fill="url(#paint2_linear_5_26795)"/>
<path d="M101.684 15.8711C101.207 15.8704 100.734 15.9637 100.294 16.1458C99.853 16.3279 99.4526 16.5952 99.1153 16.9323C98.7781 17.2695 98.5108 17.6698 98.3287 18.1105C98.1465 18.5511 98.0532 19.0234 98.054 19.5002V36.7381L83.8672 18.1185C82.8649 16.8258 81.8388 15.9838 80.0596 15.9838H79.2945C78.8105 15.9799 78.3305 16.0723 77.8826 16.2556C77.4347 16.439 77.0278 16.7096 76.6855 17.0518C76.3433 17.394 76.0726 17.8009 75.8892 18.2487C75.7058 18.6965 75.6134 19.1764 75.6173 19.6603V46.2257C75.6173 47.1882 75.9997 48.1113 76.6804 48.7919C77.3611 49.4724 78.2844 49.8548 79.247 49.8548C80.2097 49.8548 81.1329 49.4724 81.8136 48.7919C82.4943 48.1113 82.8768 47.1882 82.8768 46.2257V28.3296L97.5854 47.6192C98.5759 48.9119 99.6316 49.7836 101.411 49.7836H101.648C102.132 49.7876 102.612 49.6952 103.06 49.5118C103.508 49.3284 103.915 49.0578 104.257 48.7156C104.599 48.3734 104.87 47.9666 105.053 47.5187C105.237 47.0709 105.329 46.591 105.325 46.1071V19.5002C105.326 19.0224 105.232 18.5491 105.049 18.1077C104.867 17.6663 104.598 17.2654 104.26 16.9281C103.921 16.5908 103.519 16.3238 103.077 16.1424C102.635 15.961 102.162 15.8688 101.684 15.8711Z" fill="url(#paint3_linear_5_26795)"/>
<path d="M70.6871 20.3408C70.6871 17.8911 68.7009 15.9053 66.2508 15.9053C63.8007 15.9053 61.8145 17.8911 61.8145 20.3408V45.4238C61.8145 47.8734 63.8007 49.8593 66.2508 49.8593C68.7009 49.8593 70.6871 47.8734 70.6871 45.4238V20.3408Z" fill="url(#paint4_linear_5_26795)"/>
<path d="M167.585 43.0351H152.444V36.0202H165.195C165.625 36.0241 166.052 35.9431 166.451 35.7817C166.85 35.6204 167.213 35.3819 167.519 35.08C167.825 34.7781 168.069 34.4187 168.236 34.0224C168.403 33.6261 168.49 33.2007 168.493 32.7707C168.491 31.8967 168.143 31.0591 167.525 30.4411C166.907 29.8231 166.069 29.4753 165.195 29.4737H152.444V22.696H167.342C167.772 22.6999 168.199 22.6188 168.598 22.4575C168.997 22.2962 169.36 22.0577 169.666 21.7558C169.972 21.4539 170.216 21.0945 170.383 20.6982C170.55 20.3019 170.637 19.8765 170.64 19.4464C170.637 18.5735 170.288 17.7374 169.67 17.1207C169.052 16.504 168.215 16.157 167.342 16.1554H148.814C148.33 16.1514 147.85 16.2438 147.402 16.4272C146.954 16.6106 146.547 16.8812 146.205 17.2234C145.863 17.5656 145.592 17.9724 145.409 18.4203C145.225 18.8681 145.133 19.348 145.137 19.8319V45.9229C145.133 46.4068 145.225 46.8867 145.409 47.3345C145.592 47.7824 145.863 48.1892 146.205 48.5314C146.547 48.8736 146.954 49.1442 147.402 49.3276C147.85 49.511 148.33 49.6034 148.814 49.5994H167.585C168.015 49.6041 168.441 49.5238 168.84 49.363C169.238 49.2023 169.601 48.9643 169.907 48.6628C170.213 48.3613 170.456 48.0022 170.622 47.6063C170.789 47.2103 170.875 46.7853 170.877 46.3558C170.879 45.9216 170.796 45.4911 170.632 45.0891C170.468 44.6871 170.226 44.3214 169.92 44.013C169.614 43.7046 169.251 43.4594 168.85 43.2917C168.449 43.1239 168.02 43.0367 167.585 43.0351Z" fill="url(#paint5_linear_5_26795)"/>
<path d="M123.302 16.1554H113.943C113.459 16.1514 112.979 16.2438 112.531 16.4272C112.083 16.6106 111.676 16.8812 111.334 17.2234C110.992 17.5656 110.721 17.9724 110.538 18.4203C110.354 18.8681 110.262 19.348 110.266 19.8319V45.9229C110.262 46.4069 110.354 46.8867 110.538 47.3345C110.721 47.7824 110.992 48.1892 111.334 48.5314C111.676 48.8736 112.083 49.1443 112.531 49.3276C112.979 49.511 113.459 49.6034 113.943 49.5994H123.302C133.811 49.5994 141.095 42.2939 141.095 32.8893V32.7944C141.071 23.366 133.811 16.1554 123.302 16.1554ZM133.384 32.9604C133.384 38.8902 129.328 42.9403 123.302 42.9403H117.62V22.779H123.302C129.322 22.779 133.384 26.9298 133.384 32.8596V32.9604Z" fill="url(#paint6_linear_5_26795)"/>
<path d="M202.825 27.2797V27.1848C202.825 24.0302 201.823 21.4092 199.96 19.5472C197.76 17.3473 194.468 16.1554 190.216 16.1554H178.609C178.125 16.1514 177.645 16.2438 177.197 16.4272C176.749 16.6106 176.342 16.8812 176 17.2234C175.658 17.5656 175.387 17.9724 175.204 18.4203C175.02 18.8681 174.928 19.348 174.932 19.8319V46.1898C174.932 47.1649 175.319 48.1 176.009 48.7894C176.698 49.4789 177.634 49.8663 178.609 49.8663C179.584 49.8663 180.519 49.4789 181.209 48.7894C181.899 48.1 182.286 47.1649 182.286 46.1898V38.8843H188.164L195.328 47.9569C195.733 48.5459 196.275 49.0275 196.907 49.3602C197.539 49.6929 198.243 49.8666 198.958 49.8663C199.41 49.8749 199.86 49.7938 200.281 49.6275C200.702 49.4613 201.085 49.2133 201.409 48.8979C201.734 48.5825 201.992 48.2059 202.17 47.7899C202.348 47.3739 202.441 46.9268 202.445 46.4744C202.409 45.4217 201.987 44.4191 201.259 43.6578L196.141 37.4493C200.197 35.7771 202.825 32.5335 202.825 27.2797ZM195.376 27.6592C195.376 30.4818 193.324 32.403 189.741 32.403H182.286V22.7908H189.599C193.157 22.7908 195.376 24.4156 195.376 27.5643V27.6592Z" fill="url(#paint7_linear_5_26795)"/>
<path d="M50.0546 9.65503C51.6382 9.65349 53.2058 9.97088 54.6639 10.5883C56.1221 11.2057 57.4409 12.1104 58.5418 13.2485C58.972 13.7554 59.5019 14.1683 60.0986 14.4616C60.6952 14.7549 61.3459 14.9223 62.0101 14.9534C62.6743 14.9844 63.3377 14.8785 63.9592 14.6421C64.5806 14.4058 65.1468 14.0441 65.6224 13.5796C66.0981 13.1151 66.473 12.5576 66.7239 11.942C66.9747 11.3264 67.0962 10.6657 67.0807 10.0011C67.0652 9.33651 66.9131 8.68221 66.6338 8.07894C66.3545 7.47566 65.954 6.93631 65.4572 6.49445C62.4704 3.43245 58.6386 1.32982 54.4511 0.454971C50.2636 -0.41988 45.9103 -0.0272625 41.947 1.5827C37.9837 3.19267 34.5902 5.94694 32.1996 9.49393C29.809 13.0409 28.5298 17.2197 28.5254 21.4968C28.5254 41.3557 50.0546 65.7568 50.0546 65.7568C51.8639 63.7152 52.9181 61.1149 53.0412 58.39C53.1642 55.665 52.3487 52.9803 50.7307 50.7841L50.0606 49.8531C49.1709 48.5545 48.2813 47.1609 47.3383 45.7022C44.7883 41.705 42.6048 37.4856 40.8143 33.0955C39.0706 28.6719 38.1869 24.7938 38.1869 21.5087C38.1876 19.9513 38.4952 18.4092 39.0921 16.9707C39.6889 15.5321 40.5633 14.2251 41.6653 13.1244C42.7673 12.0237 44.0754 11.1508 45.5148 10.5555C46.9543 9.96023 48.4969 9.65425 50.0546 9.65503Z" fill="url(#paint8_linear_5_26795)"/>
<path d="M57.2881 29.151C57.2881 29.151 56.9975 24.3182 50.7641 25.3441C46.923 26.1136 43.3125 27.7627 40.2161 30.162C37.1197 32.5613 34.6216 35.6454 32.918 39.1724C35.011 43.8122 37.464 48.2811 40.2545 52.5381C40.1387 51.7528 40.0812 50.96 40.0825 50.1662C40.094 46.5362 41.3649 43.0226 43.6785 40.225C45.992 37.4274 49.2049 35.5191 52.7688 34.8258C58.1066 33.8593 57.2881 29.151 57.2881 29.151Z" fill="url(#paint9_linear_5_26795)"/>
<path d="M11.9745 26.1932C11.337 26.1881 10.7068 26.3299 10.1329 26.6075C9.55896 26.8852 9.05671 27.2912 8.66507 27.7943C8.39401 27.2839 7.98238 26.8619 7.47891 26.5782C6.97544 26.2944 6.4012 26.1609 5.82416 26.1932C5.23512 26.1999 4.65672 26.351 4.13969 26.6332C3.62266 26.9155 3.1828 27.3202 2.8587 27.8121V27.6994C2.8587 27.3204 2.70811 26.9569 2.44006 26.6889C2.172 26.4209 1.80844 26.2703 1.42935 26.2703C1.05026 26.2703 0.686703 26.4209 0.418647 26.6889C0.150592 26.9569 0 27.3204 0 27.6994V35.1531C0 35.5322 0.150592 35.8956 0.418647 36.1637C0.686703 36.4317 1.05026 36.5822 1.42935 36.5822C1.80844 36.5822 2.172 36.4317 2.44006 36.1637C2.70811 35.8956 2.8587 35.5322 2.8587 35.1531V30.8422C2.8587 29.4902 3.51704 28.7905 4.59053 28.7905C5.66403 28.7905 6.26898 29.4902 6.26898 30.8422V35.1531C6.26898 35.5322 6.41957 35.8956 6.68763 36.1637C6.95568 36.4317 7.31924 36.5822 7.69833 36.5822C8.07742 36.5822 8.44098 36.4317 8.70904 36.1637C8.97709 35.8956 9.12768 35.5322 9.12768 35.1531V30.8422C9.12768 29.4902 9.78602 28.7905 10.8595 28.7905C11.933 28.7905 12.532 29.4902 12.532 30.8422V35.1531C12.532 35.5322 12.6826 35.8956 12.9507 36.1637C13.2187 36.4317 13.5823 36.5822 13.9614 36.5822C14.3405 36.5822 14.704 36.4317 14.9721 36.1637C15.2401 35.8956 15.3907 35.5322 15.3907 35.1531V29.8993C15.4085 27.4741 14.1037 26.1932 11.9745 26.1932Z" fill="url(#paint10_linear_5_26795)"/>
<path d="M24.807 26.2667C24.49 26.2735 24.1839 26.3839 23.9355 26.5809C23.6871 26.7779 23.5099 27.0507 23.431 27.3578L21.3374 33.2105L19.1548 27.34C19.083 27.0307 18.9071 26.7554 18.6567 26.56C18.4063 26.3647 18.0964 26.2612 17.7789 26.2667C17.5946 26.2594 17.4107 26.2898 17.2385 26.3559C17.0663 26.422 16.9094 26.5224 16.7773 26.6512C16.6452 26.7799 16.5408 26.9342 16.4703 27.1046C16.3998 27.275 16.3648 27.458 16.3673 27.6424C16.3825 27.8687 16.4346 28.0911 16.5215 28.3006L19.9615 36.2762L19.8666 36.5015C19.7923 36.7025 19.6506 36.8714 19.4657 36.9796C19.2807 37.0877 19.0639 37.1283 18.8524 37.0945C18.65 37.0878 18.45 37.0498 18.2593 36.9818C18.1073 36.927 17.9464 36.9008 17.7848 36.9047C17.6322 36.9062 17.4814 36.9383 17.3415 36.9992C17.2015 37.06 17.0752 37.1484 16.9701 37.259C16.865 37.3697 16.7832 37.5003 16.7295 37.6432C16.6759 37.786 16.6516 37.9382 16.6579 38.0907C16.6593 38.3593 16.748 38.6203 16.9106 38.8342C17.0732 39.0481 17.3009 39.2034 17.5594 39.2766C18.0592 39.4576 18.5878 39.546 19.1193 39.5376C20.8333 39.5376 21.6814 38.7667 22.5295 36.715L26.0466 28.265C26.1275 28.0486 26.1716 27.8201 26.1771 27.589C26.1772 27.4113 26.1415 27.2354 26.072 27.0718C26.0026 26.9082 25.9009 26.7602 25.7731 26.6368C25.6452 26.5134 25.4937 26.417 25.3277 26.3534C25.1618 26.2898 24.9847 26.2603 24.807 26.2667Z" fill="url(#paint11_linear_5_26795)"/>
<path d="M101.684 15.8711C101.207 15.8704 100.734 15.9637 100.294 16.1458C99.853 16.3279 99.4526 16.5952 99.1153 16.9323C98.7781 17.2695 98.5108 17.6698 98.3287 18.1105C98.1465 18.5511 98.0532 19.0234 98.054 19.5002V36.7381L83.8672 18.1185C82.8649 16.8258 81.8388 15.9838 80.0596 15.9838H79.2945C78.8105 15.9799 78.3305 16.0723 77.8826 16.2556C77.4347 16.439 77.0278 16.7096 76.6855 17.0518C76.3433 17.394 76.0726 17.8009 75.8892 18.2487C75.7058 18.6965 75.6134 19.1764 75.6173 19.6603V46.2257C75.6173 47.1882 75.9997 48.1113 76.6804 48.7919C77.3611 49.4724 78.2844 49.8548 79.247 49.8548C80.2097 49.8548 81.1329 49.4724 81.8136 48.7919C82.4943 48.1113 82.8768 47.1882 82.8768 46.2257V28.3296L97.5854 47.6192C98.5759 48.9119 99.6316 49.7836 101.411 49.7836H101.648C102.132 49.7876 102.612 49.6952 103.06 49.5118C103.508 49.3284 103.915 49.0578 104.257 48.7156C104.599 48.3734 104.87 47.9666 105.053 47.5187C105.237 47.0709 105.329 46.591 105.325 46.1071V19.5002C105.326 19.0224 105.232 18.5491 105.049 18.1077C104.867 17.6663 104.598 17.2654 104.26 16.9281C103.921 16.5908 103.519 16.3238 103.077 16.1424C102.635 15.961 102.162 15.8688 101.684 15.8711Z" fill="url(#paint12_linear_5_26795)"/>
<path d="M70.6871 20.3408C70.6871 17.8911 68.7009 15.9053 66.2508 15.9053C63.8007 15.9053 61.8145 17.8911 61.8145 20.3408V45.4238C61.8145 47.8734 63.8007 49.8593 66.2508 49.8593C68.7009 49.8593 70.6871 47.8734 70.6871 45.4238V20.3408Z" fill="url(#paint13_linear_5_26795)"/>
<path d="M167.585 43.0351H152.444V36.0202H165.195C165.625 36.0241 166.052 35.9431 166.451 35.7817C166.85 35.6204 167.213 35.3819 167.519 35.08C167.825 34.7781 168.069 34.4187 168.236 34.0224C168.403 33.6261 168.49 33.2007 168.493 32.7707C168.491 31.8967 168.143 31.0591 167.525 30.4411C166.907 29.8231 166.069 29.4753 165.195 29.4737H152.444V22.696H167.342C167.772 22.6999 168.199 22.6188 168.598 22.4575C168.997 22.2962 169.36 22.0577 169.666 21.7558C169.972 21.4539 170.216 21.0945 170.383 20.6982C170.55 20.3019 170.637 19.8765 170.64 19.4464C170.637 18.5735 170.288 17.7374 169.67 17.1207C169.052 16.504 168.215 16.157 167.342 16.1554H148.814C148.33 16.1514 147.85 16.2438 147.402 16.4272C146.954 16.6106 146.547 16.8812 146.205 17.2234C145.863 17.5656 145.592 17.9724 145.409 18.4203C145.225 18.8681 145.133 19.348 145.137 19.8319V45.9229C145.133 46.4068 145.225 46.8867 145.409 47.3345C145.592 47.7824 145.863 48.1892 146.205 48.5314C146.547 48.8736 146.954 49.1442 147.402 49.3276C147.85 49.511 148.33 49.6034 148.814 49.5994H167.585C168.015 49.6041 168.441 49.5238 168.84 49.363C169.238 49.2023 169.601 48.9643 169.907 48.6628C170.213 48.3613 170.456 48.0022 170.622 47.6063C170.789 47.2103 170.875 46.7853 170.877 46.3558C170.879 45.9216 170.796 45.4911 170.632 45.0891C170.468 44.6871 170.226 44.3214 169.92 44.013C169.614 43.7046 169.251 43.4594 168.85 43.2917C168.449 43.1239 168.02 43.0367 167.585 43.0351Z" fill="url(#paint14_linear_5_26795)"/>
<path d="M123.302 16.1554H113.943C113.459 16.1514 112.979 16.2438 112.531 16.4272C112.083 16.6106 111.676 16.8812 111.334 17.2234C110.992 17.5656 110.721 17.9724 110.538 18.4203C110.354 18.8681 110.262 19.348 110.266 19.8319V45.9229C110.262 46.4069 110.354 46.8867 110.538 47.3345C110.721 47.7824 110.992 48.1892 111.334 48.5314C111.676 48.8736 112.083 49.1443 112.531 49.3276C112.979 49.511 113.459 49.6034 113.943 49.5994H123.302C133.811 49.5994 141.095 42.2939 141.095 32.8893V32.7944C141.071 23.366 133.811 16.1554 123.302 16.1554ZM133.384 32.9604C133.384 38.8902 129.328 42.9403 123.302 42.9403H117.62V22.779H123.302C129.322 22.779 133.384 26.9298 133.384 32.8596V32.9604Z" fill="url(#paint15_linear_5_26795)"/>
<path d="M202.825 27.2797V27.1848C202.825 24.0302 201.823 21.4092 199.96 19.5472C197.76 17.3473 194.468 16.1554 190.216 16.1554H178.609C178.125 16.1514 177.645 16.2438 177.197 16.4272C176.749 16.6106 176.342 16.8812 176 17.2234C175.658 17.5656 175.387 17.9724 175.204 18.4203C175.02 18.8681 174.928 19.348 174.932 19.8319V46.1898C174.932 47.1649 175.319 48.1 176.009 48.7894C176.698 49.4789 177.634 49.8663 178.609 49.8663C179.584 49.8663 180.519 49.4789 181.209 48.7894C181.899 48.1 182.286 47.1649 182.286 46.1898V38.8843H188.164L195.328 47.9569C195.733 48.5459 196.275 49.0275 196.907 49.3602C197.539 49.6929 198.243 49.8666 198.958 49.8663C199.41 49.8749 199.86 49.7938 200.281 49.6275C200.702 49.4613 201.085 49.2133 201.409 48.8979C201.734 48.5825 201.992 48.2059 202.17 47.7899C202.348 47.3739 202.441 46.9268 202.445 46.4744C202.409 45.4217 201.987 44.4191 201.259 43.6578L196.141 37.4493C200.197 35.7771 202.825 32.5335 202.825 27.2797ZM195.376 27.6592C195.376 30.4818 193.324 32.403 189.741 32.403H182.286V22.7908H189.599C193.157 22.7908 195.376 24.4156 195.376 27.5643V27.6592Z" fill="url(#paint16_linear_5_26795)"/>
<path d="M50.0546 9.65503C51.6382 9.65349 53.2058 9.97088 54.6639 10.5883C56.1221 11.2057 57.4409 12.1104 58.5418 13.2485C58.972 13.7554 59.5019 14.1683 60.0986 14.4616C60.6952 14.7549 61.3459 14.9223 62.0101 14.9534C62.6743 14.9844 63.3377 14.8785 63.9592 14.6421C64.5806 14.4058 65.1468 14.0441 65.6224 13.5796C66.0981 13.1151 66.473 12.5576 66.7239 11.942C66.9747 11.3264 67.0962 10.6657 67.0807 10.0011C67.0652 9.33651 66.9131 8.68221 66.6338 8.07894C66.3545 7.47566 65.954 6.93631 65.4572 6.49445C62.4704 3.43245 58.6386 1.32982 54.4511 0.454971C50.2636 -0.41988 45.9103 -0.0272625 41.947 1.5827C37.9837 3.19267 34.5902 5.94694 32.1996 9.49393C29.809 13.0409 28.5298 17.2197 28.5254 21.4968C28.5254 41.3557 50.0546 65.7568 50.0546 65.7568C51.8639 63.7152 52.9181 61.1149 53.0412 58.39C53.1642 55.665 52.3487 52.9803 50.7307 50.7841L50.0606 49.8531C49.1709 48.5545 48.2813 47.1609 47.3383 45.7022C44.7883 41.705 42.6048 37.4856 40.8143 33.0955C39.0706 28.6719 38.1869 24.7938 38.1869 21.5087C38.1876 19.9513 38.4952 18.4092 39.0921 16.9707C39.6889 15.5321 40.5633 14.2251 41.6653 13.1244C42.7673 12.0237 44.0754 11.1508 45.5148 10.5555C46.9543 9.96023 48.4969 9.65425 50.0546 9.65503Z" fill="url(#paint17_linear_5_26795)"/>
<path d="M57.2881 29.151C57.2881 29.151 56.9975 24.3182 50.7641 25.3441C46.923 26.1136 43.3125 27.7627 40.2161 30.162C37.1197 32.5613 34.6216 35.6454 32.918 39.1724C35.011 43.8122 37.464 48.2811 40.2545 52.5381C40.1387 51.7528 40.0812 50.96 40.0825 50.1662C40.094 46.5362 41.3649 43.0226 43.6785 40.225C45.992 37.4274 49.2049 35.5191 52.7688 34.8258C58.1066 33.8593 57.2881 29.151 57.2881 29.151Z" fill="url(#paint18_linear_5_26795)"/>
<path d="M226.96 34.8959L225.1 30.3559L223.24 34.8959H226.96ZM223.72 26.6559H226.56L232.56 40.7559H229.34L228.06 37.6159H222.14L220.86 40.7559H217.72L223.72 26.6559ZM234.861 26.7559H237.941V40.7559H234.861V26.7559Z" fill="white"/>
<circle cx="213.5" cy="46.2559" r="2.5" fill="white"/>
<defs>
<linearGradient id="paint0_linear_5_26795" x1="243.772" y1="21.0269" x2="209.182" y2="49.4572" gradientUnits="userSpaceOnUse">
<stop stop-color="#F800C0"/>
<stop offset="1" stop-color="#FE8A70"/>
</linearGradient>
<linearGradient id="paint1_linear_5_26795" x1="3.89068" y1="30.9726" x2="203.038" y2="59.4225" gradientUnits="userSpaceOnUse">
<stop stop-color="#4B4CFF"/>
<stop offset="1" stop-color="#003DCA"/>
</linearGradient>
<linearGradient id="paint2_linear_5_26795" x1="3.97763" y1="30.3523" x2="203.125" y2="58.8081" gradientUnits="userSpaceOnUse">
<stop stop-color="#4B4CFF"/>
<stop offset="1" stop-color="#003DCA"/>
</linearGradient>
<linearGradient id="paint3_linear_5_26795" x1="5.35965" y1="20.7098" x2="204.507" y2="49.1656" gradientUnits="userSpaceOnUse">
<stop stop-color="#4B4CFF"/>
<stop offset="1" stop-color="#003DCA"/>
</linearGradient>
<linearGradient id="paint4_linear_5_26795" x1="4.87171" y1="24.118" x2="204.019" y2="52.5738" gradientUnits="userSpaceOnUse">
<stop stop-color="#4B4CFF"/>
<stop offset="1" stop-color="#003DCA"/>
</linearGradient>
<linearGradient id="paint5_linear_5_26795" x1="6.70918" y1="11.2515" x2="205.856" y2="39.7013" gradientUnits="userSpaceOnUse">
<stop stop-color="#4B4CFF"/>
<stop offset="0.5" stop-color="#1040D5"/>
<stop offset="1" stop-color="#003DCA"/>
</linearGradient>
<linearGradient id="paint6_linear_5_26795" x1="5.92308" y1="16.6772" x2="205.07" y2="45.133" gradientUnits="userSpaceOnUse">
<stop stop-color="#4B4CFF"/>
<stop offset="1" stop-color="#003DCA"/>
</linearGradient>
<linearGradient id="paint7_linear_5_26795" x1="7.22909" y1="7.61649" x2="206.376" y2="36.0723" gradientUnits="userSpaceOnUse">
<stop stop-color="#4B4CFF"/>
<stop offset="1" stop-color="#003DCA"/>
</linearGradient>
<linearGradient id="paint8_linear_5_26795" x1="4.55855" y1="26.2584" x2="203.699" y2="54.7083" gradientUnits="userSpaceOnUse">
<stop stop-color="#4B4CFF"/>
<stop offset="1" stop-color="#003DCA"/>
</linearGradient>
<linearGradient id="paint9_linear_5_26795" x1="32.918" y1="38.8699" x2="57.3296" y2="38.8699" gradientUnits="userSpaceOnUse">
<stop stop-color="#FE8A70"/>
<stop offset="1" stop-color="#F800C0"/>
</linearGradient>
<linearGradient id="paint10_linear_5_26795" x1="3.89068" y1="30.9726" x2="203.038" y2="59.4225" gradientUnits="userSpaceOnUse">
<stop stop-color="#4B4CFF"/>
<stop offset="1" stop-color="#003DCA"/>
</linearGradient>
<linearGradient id="paint11_linear_5_26795" x1="3.97763" y1="30.3523" x2="203.125" y2="58.8081" gradientUnits="userSpaceOnUse">
<stop stop-color="#4B4CFF"/>
<stop offset="1" stop-color="#003DCA"/>
</linearGradient>
<linearGradient id="paint12_linear_5_26795" x1="5.35965" y1="20.7098" x2="204.507" y2="49.1656" gradientUnits="userSpaceOnUse">
<stop stop-color="#4B4CFF"/>
<stop offset="1" stop-color="#003DCA"/>
</linearGradient>
<linearGradient id="paint13_linear_5_26795" x1="4.87171" y1="24.118" x2="204.019" y2="52.5738" gradientUnits="userSpaceOnUse">
<stop stop-color="#4B4CFF"/>
<stop offset="1" stop-color="#003DCA"/>
</linearGradient>
<linearGradient id="paint14_linear_5_26795" x1="6.70918" y1="11.2515" x2="205.856" y2="39.7013" gradientUnits="userSpaceOnUse">
<stop stop-color="#4B4CFF"/>
<stop offset="0.5" stop-color="#1040D5"/>
<stop offset="1" stop-color="#003DCA"/>
</linearGradient>
<linearGradient id="paint15_linear_5_26795" x1="5.92308" y1="16.6772" x2="205.07" y2="45.133" gradientUnits="userSpaceOnUse">
<stop stop-color="#4B4CFF"/>
<stop offset="1" stop-color="#003DCA"/>
</linearGradient>
<linearGradient id="paint16_linear_5_26795" x1="7.22909" y1="7.61649" x2="206.376" y2="36.0723" gradientUnits="userSpaceOnUse">
<stop stop-color="#4B4CFF"/>
<stop offset="1" stop-color="#003DCA"/>
</linearGradient>
<linearGradient id="paint17_linear_5_26795" x1="4.55855" y1="26.2584" x2="203.699" y2="54.7083" gradientUnits="userSpaceOnUse">
<stop stop-color="#4B4CFF"/>
<stop offset="1" stop-color="#003DCA"/>
</linearGradient>
<linearGradient id="paint18_linear_5_26795" x1="32.918" y1="38.8699" x2="57.3296" y2="38.8699" gradientUnits="userSpaceOnUse">
<stop stop-color="#FE8A70"/>
<stop offset="1" stop-color="#F800C0"/>
</linearGradient>
</defs>
</svg>
