<svg width="27" height="27" viewBox="0 0 27 27" fill="none" xmlns="http://www.w3.org/2000/svg">
<path d="M22.9922 13.7109C22.9922 13.1284 22.52 12.6562 21.9375 12.6562C21.355 12.6562 20.8828 13.1284 20.8828 13.7109C20.8828 17.7818 17.5709 21.0938 13.5 21.0938C9.42912 21.0938 6.11719 17.7818 6.11719 13.7109C6.11719 13.1284 5.645 12.6562 5.0625 12.6562C4.48 12.6562 4.00781 13.1284 4.00781 13.7109C4.00781 18.5884 7.70586 22.6178 12.4453 23.1442V24.8906H9.28125C8.69875 24.8906 8.22656 25.3628 8.22656 25.9453C8.22656 26.5278 8.69875 27 9.28125 27H17.7188C18.3013 27 18.7734 26.5278 18.7734 25.9453C18.7734 25.3628 18.3013 24.8906 17.7188 24.8906H14.5547V23.1442C19.2941 22.6178 22.9922 18.5884 22.9922 13.7109Z" fill="#003DCA"/>
<path d="M13.5 18.9844C10.5922 18.9844 8.22656 16.6187 8.22656 13.7109V5.27344C8.22656 2.36566 10.5922 0 13.5 0C16.4078 0 18.7734 2.36566 18.7734 5.27344V13.7109C18.7734 16.6187 16.4078 18.9844 13.5 18.9844ZM13.5 2.10938C11.7553 2.10938 10.3359 3.52877 10.3359 5.27344V13.7109C10.3359 15.4556 11.7553 16.875 13.5 16.875C15.2447 16.875 16.6641 15.4556 16.6641 13.7109V5.27344C16.6641 3.52877 15.2447 2.10938 13.5 2.10938Z" fill="#003DCA"/>
<path d="M5.0625 10.5469C4.48 10.5469 4.00781 10.0747 4.00781 9.49219V7.38281C4.00781 6.80031 4.48 6.32812 5.0625 6.32812C5.645 6.32812 6.11719 6.80031 6.11719 7.38281V9.49219C6.11719 10.0747 5.645 10.5469 5.0625 10.5469Z" fill="#F800C0"/>
<path d="M1.05469 12.6562C0.472184 12.6562 0 12.1841 0 11.6016V5.27344C0 4.69093 0.472184 4.21875 1.05469 4.21875C1.63719 4.21875 2.10938 4.69093 2.10938 5.27344V11.6016C2.10938 12.1841 1.63719 12.6562 1.05469 12.6562Z" fill="#F800C0"/>
<path d="M21.9375 10.5469C21.355 10.5469 20.8828 10.0747 20.8828 9.49219V7.38281C20.8828 6.80031 21.355 6.32812 21.9375 6.32812C22.52 6.32812 22.9922 6.80031 22.9922 7.38281V9.49219C22.9922 10.0747 22.52 10.5469 21.9375 10.5469Z" fill="#F800C0"/>
<path d="M25.9453 12.6562C25.3628 12.6562 24.8906 12.1841 24.8906 11.6016V5.27344C24.8906 4.69093 25.3628 4.21875 25.9453 4.21875C26.5278 4.21875 27 4.69093 27 5.27344V11.6016C27 12.1841 26.5278 12.6562 25.9453 12.6562Z" fill="#F800C0"/>
</svg>
