<svg width="22" height="22" viewBox="0 0 22 22" fill="none" xmlns="http://www.w3.org/2000/svg">
<path d="M3.34024 17.1974V4.175C3.34024 2.33088 4.83518 0.835938 6.6793 0.835938H4.175C2.33088 0.835938 0.835938 2.33088 0.835938 4.175V17.1974C0.835938 19.0415 2.33088 20.5364 4.175 20.5364H6.6793C4.83518 20.5364 3.34024 19.0415 3.34024 17.1974Z" fill="#CEE1F2"/>
<path d="M17.1962 21.37H4.17383C1.87238 21.37 0 19.4976 0 17.1962V4.17383C0 1.87238 1.87238 0 4.17383 0H17.1962C19.4976 0 21.37 1.87238 21.37 4.17383V17.1962C21.37 19.4976 19.4976 21.37 17.1962 21.37ZM4.17383 1.66953C2.79296 1.66953 1.66953 2.79296 1.66953 4.17383V17.1962C1.66953 18.5771 2.79296 19.7005 4.17383 19.7005H17.1962C18.5771 19.7005 19.7005 18.5771 19.7005 17.1962V4.17383C19.7005 2.79296 18.5771 1.66953 17.1962 1.66953H4.17383Z" fill="white"/>
<path d="M7.34672 6.51328H4.17461C3.71357 6.51328 3.33984 6.13956 3.33984 5.67852C3.33984 5.21747 3.71357 4.84375 4.17461 4.84375H7.34672C7.80776 4.84375 8.18149 5.21747 8.18149 5.67852C8.18149 6.13956 7.80776 6.51328 7.34672 6.51328Z" fill="white"/>
<path d="M7.34672 9.84922H4.17461C3.71357 9.84922 3.33984 9.4755 3.33984 9.01445C3.33984 8.55341 3.71357 8.17969 4.17461 8.17969H7.34672C7.80776 8.17969 8.18149 8.55341 8.18149 9.01445C8.18149 9.4755 7.80776 9.84922 7.34672 9.84922Z" fill="white"/>
<path d="M7.34672 13.1891H4.17461C3.71357 13.1891 3.33984 12.8153 3.33984 12.3543C3.33984 11.8933 3.71357 11.5195 4.17461 11.5195H7.34672C7.80776 11.5195 8.18149 11.8933 8.18149 12.3543C8.18149 12.8153 7.80776 13.1891 7.34672 13.1891Z" fill="white"/>
<path d="M7.34672 16.5289H4.17461C3.71357 16.5289 3.33984 16.1552 3.33984 15.6941C3.33984 15.2331 3.71357 14.8594 4.17461 14.8594H7.34672C7.80776 14.8594 8.18149 15.2331 8.18149 15.6941C8.18149 16.1552 7.80776 16.5289 7.34672 16.5289Z" fill="white"/>
<path d="M17.1963 6.51328H14.0242C13.5632 6.51328 13.1895 6.13956 13.1895 5.67852C13.1895 5.21747 13.5632 4.84375 14.0242 4.84375H17.1963C17.6574 4.84375 18.0311 5.21747 18.0311 5.67852C18.0311 6.13956 17.6574 6.51328 17.1963 6.51328Z" fill="white"/>
<path d="M17.1963 9.84922H14.0242C13.5632 9.84922 13.1895 9.4755 13.1895 9.01445C13.1895 8.55341 13.5632 8.17969 14.0242 8.17969H17.1963C17.6574 8.17969 18.0311 8.55341 18.0311 9.01445C18.0311 9.4755 17.6574 9.84922 17.1963 9.84922Z" fill="white"/>
<path d="M17.1963 13.1891H14.0242C13.5632 13.1891 13.1895 12.8153 13.1895 12.3543C13.1895 11.8933 13.5632 11.5195 14.0242 11.5195H17.1963C17.6574 11.5195 18.0311 11.8933 18.0311 12.3543C18.0311 12.8153 17.6574 13.1891 17.1963 13.1891Z" fill="white"/>
<path d="M17.1963 16.5289H14.0242C13.5632 16.5289 13.1895 16.1552 13.1895 15.6941C13.1895 15.2331 13.5632 14.8594 14.0242 14.8594H17.1963C17.6574 14.8594 18.0311 15.2331 18.0311 15.6941C18.0311 16.1552 17.6574 16.5289 17.1963 16.5289Z" fill="white"/>
<path d="M10.6844 18.1977C10.2233 18.1977 9.84961 17.8239 9.84961 17.3629V4.00664C9.84961 3.5456 10.2233 3.17188 10.6844 3.17188C11.1454 3.17188 11.5191 3.5456 11.5191 4.00664V17.3629C11.5191 17.8239 11.1454 18.1977 10.6844 18.1977Z" fill="white"/>
</svg>
