<svg width="22" height="22" viewBox="0 0 22 22" fill="none" xmlns="http://www.w3.org/2000/svg">
<path d="M5.59411 5.65618H3.08981C1.84505 5.65618 0.835938 4.64707 0.835938 3.40231C0.835938 2.1575 1.84505 1.14844 3.08981 1.14844H5.59411C4.34934 1.14844 3.34024 2.1575 3.34024 3.40231C3.34024 4.64707 4.34934 5.65618 5.59411 5.65618ZM3.34024 10.9987C3.34024 9.75388 4.34934 8.74481 5.59411 8.74481H3.08981C1.84505 8.74481 0.835938 9.75388 0.835938 10.9987C0.835938 12.2434 1.84505 13.2526 3.08981 13.2526H5.59411C4.34934 13.2526 3.34024 12.2434 3.34024 10.9987ZM3.34024 18.5951C3.34024 17.3503 4.34934 16.3412 5.59411 16.3412H3.08981C1.84505 16.3412 0.835938 17.3503 0.835938 18.5951C0.835938 19.8398 1.84505 20.8489 3.08981 20.8489H5.59411C4.34934 20.8489 3.34024 19.8398 3.34024 18.5951Z" fill="#CEE1F2"/>
<path d="M6.56899 6.48977H3.08864C1.38555 6.48977 0 5.10423 0 3.40114C0 1.69805 1.38555 0.3125 3.08864 0.3125H6.59466C7.0557 0.3125 7.42942 0.686225 7.42942 1.14727C7.42942 1.60831 7.0557 1.98203 6.59466 1.98203H3.08864C2.30613 1.98203 1.66953 2.61863 1.66953 3.40114C1.66953 4.18365 2.30613 4.82024 3.08864 4.82024H6.56899C7.03003 4.82024 7.40375 5.19396 7.40375 5.65501C7.40375 6.11605 7.03003 6.48977 6.56899 6.48977ZM21.37 3.40114C21.37 1.69805 19.9845 0.3125 18.2814 0.3125H9.93372C9.47268 0.3125 9.09896 0.686225 9.09896 1.14727C9.09896 1.60831 9.47268 1.98203 9.93372 1.98203H18.2814C19.0639 1.98203 19.7005 2.61863 19.7005 3.40114C19.7005 4.18365 19.0639 4.82024 18.2814 4.82024H9.90805C9.44701 4.82024 9.07329 5.19396 9.07329 5.65501C9.07329 6.11605 9.44701 6.48977 9.90805 6.48977H18.2814C19.9845 6.48977 21.37 5.10423 21.37 3.40114ZM14.5667 13.2514C14.5667 12.7903 14.193 12.4166 13.7319 12.4166H3.08864C2.30613 12.4166 1.66953 11.78 1.66953 10.9975C1.66953 10.215 2.30613 9.57841 3.08864 9.57841H13.7319C14.193 9.57841 14.5667 9.20468 14.5667 8.74364C14.5667 8.2826 14.193 7.90888 13.7319 7.90888H3.08864C1.38555 7.90888 0 9.29442 0 10.9975C0 12.7006 1.38555 14.0861 3.08864 14.0861H13.7319C14.193 14.0861 14.5667 13.7124 14.5667 13.2514ZM21.3283 18.5939C21.3283 16.8908 19.9427 15.5053 18.2396 15.5053H11.9789C11.5179 15.5053 11.1441 15.879 11.1441 16.34C11.1441 16.8011 11.5179 17.1748 11.9789 17.1748H18.2396C19.0222 17.1748 19.6588 17.8114 19.6588 18.5939C19.6588 19.3764 19.0222 20.013 18.2396 20.013H11.9789C11.5179 20.013 11.1441 20.3867 11.1441 20.8478C11.1441 21.3088 11.5179 21.6825 11.9789 21.6825H18.2396C19.9427 21.6825 21.3283 20.297 21.3283 18.5939ZM9.4746 20.8478C9.4746 20.3867 9.10087 20.013 8.63983 20.013H3.08864C2.30613 20.013 1.66953 19.3764 1.66953 18.5939C1.66953 17.8114 2.30613 17.1748 3.08864 17.1748H8.63983C9.10087 17.1748 9.4746 16.8011 9.4746 16.34C9.4746 15.879 9.10087 15.5053 8.63983 15.5053H3.08864C1.38555 15.5053 0 16.8908 0 18.5939C0 20.297 1.38555 21.6825 3.08864 21.6825H8.63983C9.10087 21.6825 9.4746 21.3088 9.4746 20.8478Z" fill="#003DCA"/>
<path d="M18.2398 14.0835H17.0711C16.6101 14.0835 16.2363 13.7098 16.2363 13.2488C16.2363 12.7877 16.6101 12.414 17.0711 12.414H18.2398C19.0223 12.414 19.6589 11.7774 19.6589 10.9949C19.6589 10.2124 19.0223 9.57578 18.2398 9.57578H17.0711C16.6101 9.57578 16.2363 9.20206 16.2363 8.74102C16.2363 8.27997 16.6101 7.90625 17.0711 7.90625H18.2398C19.9429 7.90625 21.3284 9.2918 21.3284 10.9949C21.3284 12.698 19.9429 14.0835 18.2398 14.0835Z" fill="#F800C0"/>
</svg>
