<svg width="15" height="18" viewBox="0 0 15 18" fill="none" xmlns="http://www.w3.org/2000/svg">
<path d="M7.38676 14.9497L7.37715 14.9481C5.44743 12.4983 2.89993 9.25885 2.89993 7.07009C2.89993 3.81763 5.16001 1.24496 8.26574 0.759018C7.92584 0.704527 7.57726 0.675781 7.22177 0.675781H7.21344C3.59616 0.675781 0.675781 3.60816 0.675781 7.22544C0.675781 9.41421 3.33398 13.1823 5.2637 15.632C6.19438 16.8134 7.92648 16.8915 8.96574 15.8701C8.36872 15.7793 7.79903 15.473 7.38676 14.9497Z" fill="#CEE1F2"/>
<path d="M12.3201 2.11814C10.9609 0.753122 9.15009 0.00135869 7.22128 0.00135869H7.21296C3.32891 -0.0781379 -0.0785886 3.34241 0.00137984 7.22504C0.103051 9.96664 2.74053 13.4484 4.79443 16.1234C5.39761 16.8439 6.27649 17.2552 7.22068 17.2552C8.19796 17.2552 9.10534 16.8148 9.71011 16.047C11.2338 14.1536 14.5239 9.59952 14.4246 7.22497C14.4246 5.29477 13.6772 3.48115 12.3201 2.11814ZM8.65121 15.2129C7.95468 16.1317 6.48947 16.1334 5.79267 15.2145C3.00766 11.6683 1.34928 8.71495 1.34928 7.225C1.34928 3.98515 3.97972 1.34936 7.21296 1.34936H7.22128C10.4499 1.34936 13.0766 3.98519 13.0766 7.225C13.0766 8.73116 11.4636 11.6426 8.65121 15.2129Z" fill="#003DCA"/>
<path d="M7.28045 10.0765C5.701 10.0765 4.41602 8.79155 4.41602 7.2121C4.41602 5.63264 5.701 4.34766 7.28045 4.34766C8.85991 4.34766 10.1449 5.63264 10.1449 7.2121C10.1449 8.79155 8.85991 10.0765 7.28045 10.0765ZM7.28045 5.69563C6.44427 5.69563 5.76399 6.37591 5.76399 7.2121C5.76399 8.04828 6.44427 8.72856 7.28045 8.72856C8.11663 8.72856 8.79692 8.04828 8.79692 7.2121C8.79692 6.37591 8.11667 5.69563 7.28045 5.69563Z" fill="#F800C0"/>
</svg>
