<svg width="20" height="20" viewBox="0 0 20 20" fill="none" xmlns="http://www.w3.org/2000/svg">
<path d="M3.125 15.3125V4.6875C3.125 2.53012 4.87387 0.78125 7.03125 0.78125H4.6875C2.53012 0.78125 0.78125 2.53012 0.78125 4.6875V15.3125C0.78125 17.4698 2.53012 19.2188 4.6875 19.2188H6.72102C4.70871 19.0606 3.125 17.3654 3.125 15.3125Z" fill="#CEE1F2"/>
<path d="M15.3125 20H4.6875C2.10281 20 0 17.8972 0 15.3125V4.6875C0 2.10281 2.10281 0 4.6875 0H15.3125C17.8972 0 20 2.10281 20 4.6875V15.3125C20 17.8972 17.8972 20 15.3125 20ZM4.6875 1.5625C2.96438 1.5625 1.5625 2.96438 1.5625 4.6875V15.3125C1.5625 17.0356 2.96438 18.4375 4.6875 18.4375H15.3125C17.0356 18.4375 18.4375 17.0356 18.4375 15.3125V4.6875C18.4375 2.96438 17.0356 1.5625 15.3125 1.5625H4.6875Z" fill="#003DCA"/>
<path d="M13.5547 9.21805H10.8203V6.44531C10.8203 6.01383 10.4705 5.66406 10.0391 5.66406C9.60758 5.66406 9.25781 6.01383 9.25781 6.44531V9.21805H6.52344C6.09195 9.21805 5.74219 9.56781 5.74219 9.9993C5.74219 10.4308 6.09195 10.7805 6.52344 10.7805H9.25781V13.5156C9.25781 13.9471 9.60758 14.2969 10.0391 14.2969C10.4705 14.2969 10.8203 13.9471 10.8203 13.5156V10.7805H13.5547C14.5898 10.7424 14.5897 9.25621 13.5547 9.21805Z" fill="#F800C0"/>
</svg>
